<?xml version="1.0" encoding="utf-8"?>
<!-- Generator: Adobe Illustrator 16.0.0, SVG Export Plug-In . SVG Version: 6.00 Build 0)  -->
<!DOCTYPE svg PUBLIC "-//W3C//DTD SVG 1.1//EN" "http://www.w3.org/Graphics/SVG/1.1/DTD/svg11.dtd">
<svg version="1.1" id="Layer_1" xmlns="http://www.w3.org/2000/svg" xmlns:xlink="http://www.w3.org/1999/xlink" x="0px" y="0px"
	 width="766px" height="174px" viewBox="0 0 766 174" enable-background="new 0 0 766 174" xml:space="preserve">
<g>
	<rect x="3" y="3" fill="#FFFFFF" stroke="#000000" stroke-width="2" stroke-miterlimit="10" width="748" height="39"/>
	<rect x="3" y="42" fill="none" stroke="#000000" stroke-width="2" stroke-miterlimit="10" width="748" height="39"/>
	<rect x="3" y="81" fill="none" stroke="#000000" stroke-width="2" stroke-miterlimit="10" width="748" height="39"/>
	<rect x="3" y="120" fill="none" stroke="#000000" stroke-width="2" stroke-miterlimit="10" width="748" height="39"/>
	<g>
		<path d="M646.902,23.539h-6.293V27.6h7.026v3.172h-10.911V13.67h10.558v3.172h-6.673v3.551h6.293V23.539L646.902,23.539z"/>
		<path d="M650.229,27.396c0.713,0.432,2.185,0.939,3.324,0.939c1.167,0,1.649-0.406,1.649-1.041c0-0.633-0.381-0.938-1.827-1.42
			c-2.563-0.863-3.553-2.26-3.527-3.73c0-2.309,1.979-4.061,5.052-4.061c1.444,0,2.738,0.33,3.502,0.711l-0.688,2.664
			c-0.558-0.305-1.624-0.711-2.688-0.711c-0.938,0-1.474,0.381-1.474,1.016c0,0.584,0.482,0.889,2.005,1.422
			c2.359,0.811,3.352,2.004,3.375,3.83c0,2.311-1.827,4.01-5.38,4.01c-1.624,0-3.068-0.355-4.01-0.863L650.229,27.396z"/>
		<path d="M665.583,14.811v3.553h2.767v2.842h-2.767v4.492c0,1.496,0.354,2.182,1.522,2.182c0.48,0,0.861-0.051,1.143-0.102
			l0.025,2.918c-0.51,0.203-1.423,0.33-2.515,0.33c-1.243,0-2.283-0.432-2.893-1.066c-0.711-0.734-1.065-1.928-1.065-3.678v-5.076
			h-1.647v-2.842h1.647v-2.689L665.583,14.811z"/>
		<path d="M677.639,30.771l-0.229-1.242h-0.076c-0.813,0.988-2.081,1.521-3.553,1.521c-2.514,0-4.009-1.826-4.009-3.807
			c0-3.223,2.893-4.77,7.28-4.744v-0.178c0-0.66-0.354-1.6-2.259-1.6c-1.269,0-2.613,0.432-3.425,0.939l-0.711-2.486
			c0.862-0.482,2.563-1.092,4.821-1.092c4.136,0,5.454,2.436,5.454,5.355v4.313c0,1.193,0.053,2.334,0.18,3.02L677.639,30.771
			L677.639,30.771z M677.182,24.91c-2.028-0.025-3.604,0.457-3.604,1.953c0,0.99,0.66,1.473,1.521,1.473
			c0.967,0,1.751-0.635,2.007-1.422c0.051-0.203,0.074-0.43,0.074-0.658L677.182,24.91L677.182,24.91z"/>
		<path d="M696.014,12.756v14.311c0,1.396,0.053,2.869,0.104,3.705h-3.427l-0.179-1.826h-0.051
			c-0.787,1.395-2.284,2.105-3.883,2.105c-2.943,0-5.305-2.512-5.305-6.369c-0.024-4.188,2.59-6.598,5.559-6.598
			c1.521,0,2.715,0.533,3.271,1.396h0.053v-6.724H696.014z M692.156,23.615c0-0.201-0.025-0.479-0.051-0.684
			c-0.229-1.041-1.065-1.904-2.261-1.904c-1.75,0-2.664,1.574-2.664,3.527c0,2.107,1.04,3.426,2.641,3.426
			c1.116,0,2.005-0.762,2.231-1.852c0.076-0.279,0.104-0.559,0.104-0.889V23.615L692.156,23.615z"/>
		<path d="M711.368,24.428c0,4.543-3.225,6.623-6.546,6.623c-3.629,0-6.421-2.385-6.421-6.395c0-4.01,2.64-6.572,6.622-6.572
			C708.831,18.084,711.368,20.697,711.368,24.428z M702.386,24.555c0,2.133,0.89,3.73,2.537,3.73c1.498,0,2.462-1.498,2.462-3.73
			c0-1.852-0.711-3.73-2.462-3.73C703.071,20.824,702.386,22.729,702.386,24.555z"/>
	</g>
	<line fill="none" stroke="#000000" stroke-width="2" stroke-miterlimit="10" x1="139" y1="4" x2="139" y2="158"/>
	<line fill="none" stroke="#000000" stroke-width="2" stroke-miterlimit="10" x1="371" y1="4" x2="371" y2="158"/>
	<line fill="none" stroke="#000000" stroke-width="2" stroke-miterlimit="10" x1="596" y1="4" x2="596" y2="158"/>
	<g>
		<path d="M38.924,24.225c-0.076-2.055-0.152-4.541-0.152-7.029h-0.076c-0.532,2.184-1.243,4.619-1.903,6.623l-2.08,6.674h-3.02
			l-1.828-6.623c-0.558-2.004-1.141-4.439-1.547-6.674h-0.051c-0.102,2.311-0.178,4.949-0.305,7.08l-0.305,6.496H24.08l1.092-17.102
			h5.15l1.676,5.709c0.532,1.979,1.064,4.109,1.445,6.115h0.076c0.482-1.98,1.066-4.238,1.625-6.141l1.826-5.684h5.05l0.938,17.102
			h-3.78L38.924,24.225z"/>
		<path d="M52.936,30.771l-0.228-1.242h-0.076c-0.813,0.988-2.082,1.521-3.553,1.521c-2.513,0-4.01-1.826-4.01-3.807
			c0-3.223,2.893-4.77,7.283-4.744v-0.178c0-0.66-0.355-1.6-2.259-1.6c-1.269,0-2.614,0.432-3.426,0.939l-0.71-2.486
			c0.862-0.482,2.563-1.092,4.82-1.092c4.137,0,5.456,2.436,5.456,5.355v4.313c0,1.193,0.051,2.334,0.178,3.02L52.936,30.771
			L52.936,30.771z M52.48,24.91c-2.031-0.025-3.604,0.457-3.604,1.953c0,0.99,0.66,1.473,1.522,1.473
			c0.964,0,1.751-0.635,2.005-1.422c0.051-0.203,0.076-0.43,0.076-0.658L52.48,24.91L52.48,24.91z"/>
		<path d="M63.394,14.811v3.553h2.766v2.842h-2.766v4.492c0,1.496,0.355,2.182,1.522,2.182c0.481,0,0.862-0.051,1.142-0.102
			l0.025,2.918c-0.508,0.203-1.421,0.33-2.512,0.33c-1.244,0-2.284-0.432-2.893-1.066c-0.711-0.734-1.066-1.928-1.066-3.678v-5.076
			h-1.649v-2.842h1.649v-2.689L63.394,14.811z"/>
		<path d="M71.237,25.799c0.127,1.598,1.7,2.359,3.502,2.359c1.319,0,2.386-0.178,3.426-0.508l0.507,2.613
			c-1.268,0.508-2.816,0.762-4.49,0.762c-4.213,0-6.623-2.436-6.623-6.318c0-3.146,1.953-6.623,6.268-6.623
			c4.009,0,5.531,3.121,5.531,6.191c0,0.66-0.076,1.244-0.127,1.523L71.237,25.799L71.237,25.799z M75.779,23.16
			c0-0.939-0.406-2.514-2.182-2.514c-1.624,0-2.284,1.473-2.386,2.514H75.779z"/>
		<path d="M81.669,22.449c0-1.828-0.051-3.02-0.102-4.086h3.324l0.127,2.283h0.102c0.635-1.801,2.156-2.563,3.35-2.563
			c0.355,0,0.533,0,0.813,0.051v3.629c-0.279-0.051-0.609-0.102-1.041-0.102c-1.421,0-2.385,0.762-2.639,1.953
			c-0.051,0.254-0.076,0.559-0.076,0.863v6.293H81.67L81.669,22.449L81.669,22.449z"/>
		<path d="M95.298,14.912c0,1.066-0.813,1.93-2.08,1.93c-1.219,0-2.031-0.863-2.006-1.93c-0.025-1.117,0.788-1.953,2.032-1.953
			C94.486,12.959,95.273,13.795,95.298,14.912z M91.314,30.771V18.363h3.857v12.408H91.314z"/>
		<path d="M105.323,30.771l-0.228-1.242h-0.076c-0.813,0.988-2.082,1.521-3.553,1.521c-2.513,0-4.01-1.826-4.01-3.807
			c0-3.223,2.893-4.77,7.283-4.744v-0.178c0-0.66-0.355-1.6-2.259-1.6c-1.269,0-2.614,0.432-3.426,0.939l-0.71-2.486
			c0.862-0.482,2.563-1.092,4.82-1.092c4.137,0,5.456,2.436,5.456,5.355v4.313c0,1.193,0.051,2.334,0.178,3.02L105.323,30.771
			L105.323,30.771z M104.867,24.91c-2.031-0.025-3.604,0.457-3.604,1.953c0,0.99,0.66,1.473,1.522,1.473
			c0.964,0,1.751-0.635,2.005-1.422c0.051-0.203,0.076-0.43,0.076-0.658L104.867,24.91L104.867,24.91z"/>
		<path d="M111.669,12.756h3.857v18.016h-3.857V12.756z"/>
	</g>
	<g>
		<path d="M168.416,16.918h-4.593V13.67h13.144v3.248h-4.669v13.854h-3.882V16.918L168.416,16.918z"/>
		<path d="M182.299,14.913c0,1.065-0.812,1.929-2.081,1.929c-1.218,0-2.03-0.863-2.005-1.929c-0.025-1.117,0.787-1.954,2.03-1.954
			C181.487,12.959,182.273,13.796,182.299,14.913z M178.315,30.772V18.364h3.857v12.408H178.315z"/>
		<path d="M185.269,22.525c0-1.624-0.051-3.02-0.102-4.161h3.35l0.178,1.726h0.051c0.914-1.32,2.334-2.005,4.136-2.005
			c2.715,0,5.151,2.359,5.151,6.318c0,4.517-2.867,6.648-5.633,6.648c-1.497,0-2.664-0.609-3.223-1.421h-0.051v6.166h-3.857V22.525z
			 M189.126,25.443c0,0.305,0.025,0.584,0.076,0.813c0.254,1.04,1.142,1.827,2.258,1.827c1.675,0,2.665-1.396,2.665-3.502
			c0-1.979-0.888-3.477-2.614-3.477c-1.091,0-2.055,0.812-2.309,1.954c-0.051,0.203-0.076,0.456-0.076,0.685V25.443L189.126,25.443z
			"/>
		<path d="M212.779,24.429c0,4.542-3.223,6.623-6.547,6.623c-3.628,0-6.42-2.386-6.42-6.395c0-4.01,2.64-6.572,6.623-6.572
			C210.242,18.085,212.779,20.698,212.779,24.429z M203.796,24.556c0,2.132,0.889,3.73,2.537,3.73c1.498,0,2.462-1.498,2.462-3.73
			c0-1.853-0.71-3.73-2.462-3.73C204.482,20.825,203.796,22.729,203.796,24.556z"/>
		<path d="M232.323,12.756v14.312c0,1.396,0.051,2.868,0.102,3.705h-3.426l-0.177-1.827h-0.051
			c-0.787,1.396-2.285,2.106-3.883,2.106c-2.943,0-5.304-2.513-5.304-6.369c-0.025-4.188,2.589-6.598,5.558-6.598
			c1.521,0,2.715,0.532,3.273,1.396h0.051v-6.725H232.323z M228.466,23.616c0-0.202-0.025-0.481-0.051-0.685
			c-0.229-1.041-1.066-1.903-2.259-1.903c-1.751,0-2.665,1.573-2.665,3.527c0,2.106,1.041,3.426,2.64,3.426
			c1.116,0,2.005-0.762,2.233-1.853c0.076-0.279,0.102-0.559,0.102-0.889V23.616L228.466,23.616z"/>
		<path d="M238.39,25.799c0.127,1.599,1.701,2.36,3.502,2.36c1.32,0,2.386-0.178,3.426-0.508l0.508,2.613
			c-1.269,0.508-2.816,0.762-4.491,0.762c-4.212,0-6.623-2.437-6.623-6.318c0-3.146,1.954-6.623,6.268-6.623
			c4.009,0,5.532,3.121,5.532,6.191c0,0.66-0.076,1.243-0.127,1.522L238.39,25.799L238.39,25.799z M242.933,23.16
			c0-0.939-0.406-2.513-2.182-2.513c-1.625,0-2.285,1.472-2.387,2.513H242.933z"/>
		<path d="M253.951,22.322c0-1.548-0.051-2.867-0.102-3.958h3.248l0.178,1.675h0.076c0.532-0.787,1.623-1.954,3.755-1.954
			c1.599,0,2.868,0.812,3.4,2.106h0.051c0.456-0.635,1.015-1.143,1.599-1.498c0.686-0.405,1.446-0.608,2.359-0.608
			c2.386,0,4.188,1.675,4.188,5.379v7.309h-3.756v-6.75c0-1.802-0.584-2.842-1.826-2.842c-0.889,0-1.523,0.609-1.777,1.345
			c-0.102,0.279-0.152,0.686-0.152,0.989v7.258h-3.755V23.82c0-1.573-0.558-2.639-1.776-2.639c-0.99,0-1.573,0.761-1.802,1.396
			c-0.127,0.305-0.152,0.66-0.152,0.964v7.232h-3.755L253.951,22.322L253.951,22.322z"/>
		<path d="M282.832,30.772l-0.228-1.243h-0.076c-0.812,0.989-2.081,1.522-3.553,1.522c-2.513,0-4.009-1.827-4.009-3.807
			c0-3.223,2.893-4.771,7.282-4.745v-0.178c0-0.659-0.354-1.599-2.259-1.599c-1.269,0-2.613,0.432-3.426,0.939l-0.71-2.487
			c0.862-0.482,2.563-1.091,4.821-1.091c4.137,0,5.455,2.436,5.455,5.354v4.313c0,1.192,0.051,2.334,0.178,3.02h-3.475V30.772
			L282.832,30.772z M282.375,24.911c-2.03-0.025-3.604,0.456-3.604,1.953c0,0.99,0.66,1.473,1.522,1.473
			c0.965,0,1.751-0.635,2.005-1.422c0.051-0.203,0.076-0.431,0.076-0.659L282.375,24.911L282.375,24.911z"/>
		<path d="M293.291,14.812v3.553h2.766v2.842h-2.766v4.491c0,1.497,0.354,2.183,1.521,2.183c0.482,0,0.863-0.051,1.143-0.102
			l0.025,2.918c-0.508,0.203-1.422,0.33-2.512,0.33c-1.244,0-2.285-0.432-2.894-1.066c-0.71-0.735-1.065-1.928-1.065-3.679v-5.075
			h-1.65v-2.842h1.65v-2.69L293.291,14.812z"/>
		<path d="M301.132,25.799c0.127,1.599,1.701,2.36,3.502,2.36c1.32,0,2.386-0.178,3.426-0.508l0.508,2.613
			c-1.269,0.508-2.816,0.762-4.491,0.762c-4.212,0-6.623-2.437-6.623-6.318c0-3.146,1.954-6.623,6.268-6.623
			c4.009,0,5.532,3.121,5.532,6.191c0,0.66-0.076,1.243-0.127,1.522L301.132,25.799L301.132,25.799z M305.675,23.16
			c0-0.939-0.406-2.513-2.182-2.513c-1.625,0-2.285,1.472-2.387,2.513H305.675z"/>
		<path d="M311.566,22.449c0-1.827-0.051-3.02-0.102-4.085h3.324l0.127,2.283h0.102c0.634-1.802,2.156-2.563,3.35-2.563
			c0.354,0,0.532,0,0.812,0.051v3.629c-0.279-0.051-0.609-0.102-1.04-0.102c-1.422,0-2.386,0.761-2.64,1.953
			c-0.051,0.254-0.076,0.559-0.076,0.863v6.293h-3.856L311.566,22.449L311.566,22.449z"/>
		<path d="M325.195,14.913c0,1.065-0.813,1.929-2.081,1.929c-1.218,0-2.03-0.863-2.005-1.929c-0.025-1.117,0.787-1.954,2.03-1.954
			C324.382,12.959,325.169,13.796,325.195,14.913z M321.21,30.772V18.364h3.857v12.408H321.21z"/>
		<path d="M335.218,30.772l-0.228-1.243h-0.076c-0.812,0.989-2.081,1.522-3.553,1.522c-2.513,0-4.009-1.827-4.009-3.807
			c0-3.223,2.893-4.771,7.282-4.745v-0.178c0-0.659-0.354-1.599-2.259-1.599c-1.269,0-2.613,0.432-3.426,0.939l-0.71-2.487
			c0.862-0.482,2.563-1.091,4.821-1.091c4.137,0,5.455,2.436,5.455,5.354v4.313c0,1.192,0.051,2.334,0.178,3.02h-3.475V30.772
			L335.218,30.772z M334.762,24.911c-2.03-0.025-3.604,0.456-3.604,1.953c0,0.99,0.66,1.473,1.522,1.473
			c0.965,0,1.751-0.635,2.005-1.422c0.051-0.203,0.076-0.431,0.076-0.659v-1.345H334.762z"/>
		<path d="M341.566,12.756h3.857v18.017h-3.857V12.756z"/>
	</g>
	<g>
		<path d="M409.785,13.897c1.191-0.202,2.867-0.354,5.229-0.354c2.385,0,4.084,0.456,5.229,1.37
			c1.091,0.862,1.825,2.283,1.825,3.958c0,1.675-0.559,3.096-1.572,4.061c-1.319,1.243-3.272,1.802-5.558,1.802
			c-0.508,0-0.965-0.025-1.318-0.076v6.115h-3.832L409.785,13.897L409.785,13.897z M413.617,21.663
			c0.328,0.076,0.734,0.102,1.294,0.102c2.056,0,3.323-1.041,3.323-2.792c0-1.573-1.092-2.512-3.021-2.512
			c-0.786,0-1.319,0.076-1.599,0.152L413.617,21.663L413.617,21.663z"/>
		<path d="M446.052,24.429c0,4.542-3.223,6.623-6.546,6.623c-3.629,0-6.421-2.386-6.421-6.395c0-4.01,2.64-6.572,6.623-6.572
			C443.515,18.085,446.052,20.698,446.052,24.429z M437.069,24.556c0,2.132,0.888,3.73,2.537,3.73c1.496,0,2.462-1.498,2.462-3.73
			c0-1.853-0.711-3.73-2.462-3.73C437.755,20.825,437.069,22.729,437.069,24.556z"/>
		<path d="M424.44,22.449c0-1.827-0.053-3.02-0.104-4.085h3.324l0.127,2.283h0.102c0.637-1.802,2.157-2.563,3.352-2.563
			c0.354,0,0.533,0,0.812,0.051v3.629c-0.276-0.051-0.606-0.102-1.04-0.102c-1.421,0-2.386,0.761-2.639,1.953
			c-0.051,0.254-0.076,0.559-0.076,0.863v6.293h-3.855L424.44,22.449L424.44,22.449z"/>
		<path d="M448.085,22.525c0-1.624-0.051-3.02-0.102-4.161h3.35l0.178,1.726h0.053c0.911-1.32,2.334-2.005,4.136-2.005
			c2.716,0,5.149,2.359,5.149,6.318c0,4.517-2.865,6.648-5.633,6.648c-1.497,0-2.665-0.609-3.223-1.421h-0.051v6.166h-3.857V22.525
			L448.085,22.525z M451.942,25.443c0,0.305,0.023,0.584,0.074,0.813c0.253,1.04,1.144,1.827,2.26,1.827
			c1.675,0,2.665-1.396,2.665-3.502c0-1.979-0.891-3.477-2.614-3.477c-1.091,0-2.058,0.812-2.311,1.954
			c-0.051,0.203-0.074,0.456-0.074,0.685V25.443z"/>
		<path d="M467.248,14.913c0,1.065-0.813,1.929-2.081,1.929c-1.218,0-2.03-0.863-2.005-1.929c-0.025-1.117,0.787-1.954,2.03-1.954
			C466.435,12.959,467.223,13.796,467.248,14.913z M463.264,30.772V18.364h3.857v12.408H463.264z"/>
		<path d="M473.188,25.799c0.128,1.599,1.699,2.36,3.503,2.36c1.317,0,2.386-0.178,3.426-0.508l0.508,2.613
			c-1.271,0.508-2.817,0.762-4.492,0.762c-4.212,0-6.623-2.437-6.623-6.318c0-3.146,1.954-6.623,6.271-6.623
			c4.009,0,5.529,3.121,5.529,6.191c0,0.66-0.074,1.243-0.127,1.522L473.188,25.799L473.188,25.799z M477.729,23.16
			c0-0.939-0.403-2.513-2.182-2.513c-1.624,0-2.284,1.472-2.386,2.513H477.729z"/>
		<path d="M495.647,12.756v14.312c0,1.396,0.051,2.868,0.102,3.705h-3.426l-0.18-1.827h-0.051c-0.787,1.396-2.284,2.106-3.883,2.106
			c-2.943,0-5.304-2.513-5.304-6.369c-0.024-4.188,2.589-6.598,5.558-6.598c1.522,0,2.715,0.532,3.273,1.396h0.051v-6.725H495.647z
			 M491.79,23.616c0-0.202-0.025-0.481-0.051-0.685c-0.229-1.041-1.065-1.903-2.259-1.903c-1.75,0-2.664,1.573-2.664,3.527
			c0,2.106,1.04,3.426,2.639,3.426c1.117,0,2.005-0.762,2.233-1.853c0.074-0.279,0.102-0.559,0.102-0.889V23.616z"/>
		<path d="M505.801,30.772l-0.229-1.243h-0.076c-0.813,0.989-2.081,1.522-3.553,1.522c-2.514,0-4.011-1.827-4.011-3.807
			c0-3.223,2.895-4.771,7.282-4.745v-0.178c0-0.659-0.354-1.599-2.259-1.599c-1.271,0-2.613,0.432-3.425,0.939l-0.711-2.487
			c0.86-0.482,2.563-1.091,4.819-1.091c4.138,0,5.456,2.436,5.456,5.354v4.313c0,1.192,0.053,2.334,0.18,3.02h-3.477v0.002H505.801z
			 M505.344,24.911c-2.028-0.025-3.604,0.456-3.604,1.953c0,0.99,0.66,1.473,1.521,1.473c0.965,0,1.751-0.635,2.005-1.422
			c0.053-0.203,0.076-0.431,0.076-0.659L505.344,24.911L505.344,24.911z"/>
		<path d="M524.176,12.756v14.312c0,1.396,0.051,2.868,0.104,3.705h-3.428l-0.178-1.827h-0.051
			c-0.787,1.396-2.284,2.106-3.883,2.106c-2.943,0-5.305-2.513-5.305-6.369c-0.024-4.188,2.59-6.598,5.559-6.598
			c1.521,0,2.715,0.532,3.271,1.396h0.053v-6.725H524.176z M520.318,23.616c0-0.202-0.025-0.481-0.053-0.685
			c-0.229-1.041-1.063-1.903-2.259-1.903c-1.75,0-2.664,1.573-2.664,3.527c0,2.106,1.04,3.426,2.641,3.426
			c1.115,0,2.005-0.762,2.231-1.853c0.076-0.279,0.104-0.559,0.104-0.889V23.616L520.318,23.616z"/>
		<path d="M530.243,25.799c0.127,1.599,1.7,2.36,3.502,2.36c1.319,0,2.386-0.178,3.426-0.508l0.508,2.613
			c-1.27,0.508-2.815,0.762-4.491,0.762c-4.213,0-6.622-2.437-6.622-6.318c0-3.146,1.952-6.623,6.269-6.623
			c4.009,0,5.531,3.121,5.531,6.191c0,0.66-0.076,1.243-0.127,1.522L530.243,25.799L530.243,25.799z M534.785,23.16
			c0-0.939-0.405-2.513-2.184-2.513c-1.624,0-2.282,1.472-2.386,2.513H534.785z"/>
		<path d="M540.65,27.397c0.711,0.432,2.183,0.939,3.322,0.939c1.167,0,1.649-0.406,1.649-1.041c0-0.634-0.381-0.938-1.827-1.421
			c-2.563-0.862-3.553-2.259-3.527-3.73c0-2.309,1.979-4.06,5.052-4.06c1.444,0,2.738,0.33,3.502,0.71l-0.688,2.665
			c-0.558-0.305-1.624-0.711-2.688-0.711c-0.938,0-1.474,0.381-1.474,1.016c0,0.583,0.482,0.888,2.006,1.421
			c2.358,0.812,3.351,2.004,3.375,3.831c0,2.31-1.826,4.01-5.381,4.01c-1.624,0-3.068-0.355-4.01-0.863L540.65,27.397z"/>
	</g>
	<text transform="matrix(1 0 0 1 23.7939 71.6479)" font-family="'MyriadPro-Regular'" font-size="25">Sal </text>
	<text transform="matrix(1 0 0 1 23.7939 108.6484)" font-family="'MyriadPro-Regular'" font-size="25">Agua</text>
	<text transform="matrix(1 0 0 1 23.7939 145.6484)" font-family="'MyriadPro-Regular'" font-size="25">Laurel</text>
	<text transform="matrix(1 0 0 1 161.7939 69.6479)" font-family="'MyriadPro-Regular'" font-size="25">Natural</text>
	<text transform="matrix(1 0 0 1 161.7939 107.6484)" font-family="'MyriadPro-Regular'" font-size="25">Natural</text>
	<text transform="matrix(1 0 0 1 161.7939 145.6484)" font-family="'MyriadPro-Regular'" font-size="25">Natural</text>
	<text transform="matrix(1 0 0 1 407.7939 69.6479)" font-family="'MyriadPro-Regular'" font-size="25">Frágil</text>
	<text transform="matrix(1 0 0 1 407.7939 107.6484)" font-family="'MyriadPro-Regular'" font-size="25">Transparente</text>
	<text transform="matrix(1 0 0 1 407.7939 145.6484)" font-family="'MyriadPro-Regular'" font-size="25">Ligero</text>
	<text transform="matrix(1 0 0 1 634.7939 69.6479)" font-family="'MyriadPro-Regular'" font-size="25">Sólido</text>
	<text transform="matrix(1 0 0 1 634.7939 107.6484)" font-family="'MyriadPro-Regular'" font-size="25">Líquido</text>
	<text transform="matrix(1 0 0 1 634.7939 145.6484)" font-family="'MyriadPro-Regular'" font-size="25">Sólido</text>
</g>
</svg>
